 <svg version="1.1" id="Layer_1" xmlns="http://www.w3.org/2000/svg" xmlns:xlink="http://www.w3.org/1999/xlink" x="0px" y="0px"
	 width="18px" height="17px" viewBox="0 0 18 17" enable-background="new 0 0 18 17" xml:space="preserve">
<path fill-rule="evenodd" clip-rule="evenodd" d="M8.5,13.191c0.768,0,1.391,0.625,1.391,1.396S9.268,15.984,8.5,15.984
	s-1.391-0.625-1.391-1.396S7.732,13.191,8.5,13.191z"/>
<path fill-rule="evenodd" clip-rule="evenodd" d="M13.5,13.16c0.785,0,1.422,0.639,1.422,1.428
	s-0.637,1.428-1.422,1.428s-1.422-0.639-1.422-1.428S12.715,13.16,13.5,13.16z"/>
<path d="M16.297,4.09c-0.527-0.166-1.088,0.129-1.254,0.658c0,0-0.995,2.505-1.504,4.297
	c-0.294,0.803-0.676,1.026-1.477,1.026c-0.656,0-1.438,0-2.125,0S8.79,9.789,8.461,9.036C7.545,7.242,6.021,3.995,6.021,3.995
	c-0.19-0.582-0.951-0.953-1.364-0.953H2.001c-0.552,0-1,0.449-1,1.004s0.448,1.004,1,1.004H4.25l2.795,5.542
	c0.588,0.988,1.143,1.487,2.081,1.487h3.844c1.222,0,1.832-0.436,2.174-1.487l1.809-5.244C17.117,4.819,16.824,4.256,16.297,4.09
	C15.77,3.924,16.824,4.256,16.297,4.09C15.77,3.924,16.824,4.256,16.297,4.09C15.77,3.924,16.824,4.256,16.297,4.09z"/>
<path d="M10,4.053l0-2.036c0-0.554,0.449-1.004,1-1.004s1,0.451,1,1.004v2.036h2.535L11,7.603l-3.535-3.55H10z"/>
</svg>