<svg version="1.1" id="Layer_1" xmlns="http://www.w3.org/2000/svg" xmlns:xlink="http://www.w3.org/1999/xlink" x="0px" y="0px"
	width="18px" height="15px" viewBox="0 0 18 15" enable-background="new 0 0 18 15" xml:space="preserve">
<path fill-rule="evenodd" clip-rule="evenodd" d="M8.5,11.183c0.768,0,1.391,0.628,1.391,1.401s-0.623,1.4-1.391,1.4
s-1.391-0.627-1.391-1.4S7.732,11.183,8.5,11.183z"/>
<path fill-rule="evenodd" clip-rule="evenodd" d="M13.5,11.151c0.785,0,1.422,0.642,1.422,1.433
s-0.637,1.432-1.422,1.432s-1.422-0.641-1.422-1.432S12.715,11.151,13.5,11.151z"/>
<path d="M16.297,2.054c-0.527-0.166-1.088,0.129-1.254,0.66c0,0-0.995,2.513-1.504,4.31
c-0.294,0.806-0.676,1.029-1.477,1.029c-0.656,0-1.438,0-2.125,0S8.79,7.77,8.461,7.015c-0.916-1.8-2.439-5.057-2.439-5.057
c-0.19-0.583-0.951-0.956-1.364-0.956H2.001c-0.552,0-1,0.451-1,1.008c0,0.557,0.448,1.007,1,1.007H4.25l2.795,5.56
c0.588,0.991,1.143,1.491,2.081,1.491h3.844c1.222,0,1.832-0.437,2.174-1.491l1.809-5.261C17.117,2.784,16.824,2.22,16.297,2.054
S16.824,2.22,16.297,2.054S16.824,2.22,16.297,2.054S16.824,2.22,16.297,2.054z"/>
</svg>