 <svg version="1.1" id="Layer_1" xmlns="http://www.w3.org/2000/svg" xmlns:xlink="http://www.w3.org/1999/xlink" x="0px" y="0px"
	 width="18px" height="12px" viewBox="0 0 18 12" enable-background="new 0 0 18 12" xml:space="preserve">
<path fill="#838383" d="M16.982,5.89c-0.005-0.021-0.002-0.043-0.01-0.064c-0.003-0.008-0.011-0.013-0.014-0.021
	c-0.006-0.012-0.004-0.025-0.011-0.038C15.496,2.988,12.335,0.997,9,0.997S2.504,2.985,1.052,5.765
	C1.045,5.776,1.046,5.79,1.042,5.802C1.038,5.81,1.031,5.814,1.028,5.822C1.02,5.844,1.022,5.866,1.018,5.887
	C1.009,5.924,1,5.961,1,5.999c0,0.039,0.009,0.075,0.018,0.112c0.004,0.021,0.001,0.043,0.01,0.064
	c0.003,0.008,0.01,0.013,0.014,0.021c0.005,0.012,0.004,0.025,0.01,0.037C2.504,9.012,5.665,11.004,9,11.004
	s6.496-1.988,7.948-4.768c0.007-0.012,0.005-0.024,0.011-0.037c0.003-0.008,0.011-0.013,0.014-0.021
	c0.008-0.021,0.005-0.043,0.01-0.064C16.991,6.076,17,6.04,17,6.002S16.991,5.928,16.982,5.89z M9,10c-2.811,0-5.628-1.596-7-4
	c1.379-2.408,4.192-4.001,7-4.001c2.811,0,5.629,1.597,7,4.001C14.621,8.408,11.808,10,9,10z"/>
<path fill="#838383" d="M9,3.999c-0.001,0-0.002,0-0.003,0C7.894,4.001,6.999,4.896,6.999,6c0,0.139,0.112,0.251,0.25,0.251
	c0.138,0,0.25-0.112,0.25-0.251c0-0.827,0.673-1.5,1.501-1.5v0c0.138,0,0.25-0.112,0.25-0.25S9.138,3.999,9,3.999z"/>
<path fill="#838383" d="M8.988,2.497c-1.936,0-3.505,1.569-3.505,3.505c0,1.936,1.569,3.505,3.505,3.505
	c1.936,0,3.505-1.569,3.505-3.505C12.493,4.066,10.924,2.497,8.988,2.497z M8.988,9.007c-1.657,0-3.004-1.349-3.004-3.005
	c0-1.657,1.348-3.004,3.004-3.004c1.656,0,3.004,1.347,3.004,3.004C11.992,7.658,10.645,9.007,8.988,9.007z"/>
</svg>