<svg version="1.1" id="Layer_1" xmlns="http://www.w3.org/2000/svg" xmlns:xlink="http://www.w3.org/1999/xlink" x="0px" y="0px"
	 width="9px" height="14px" viewBox="0 0 9 14" enable-background="new 0 0 9 14" xml:space="preserve">
<path fill-rule="evenodd" clip-rule="evenodd" d="M4.943,6.99L1.059,3.104c-0.391-0.391-0.391-1.023,0-1.414
	l0.354-0.354c0.39-0.391,1.023-0.391,1.414,0L7.398,5.91c0.008,0.007,0.017,0.009,0.023,0.016l0.354,0.354
	C7.972,6.476,8.068,6.732,8.067,6.99c0.001,0.257-0.096,0.515-0.292,0.711L7.422,8.055C7.415,8.062,7.405,8.063,7.398,8.07
	l-4.572,4.572c-0.391,0.391-1.023,0.391-1.414,0L1.059,12.29c-0.391-0.391-0.391-1.024,0-1.415L4.943,6.99z"/>
</svg>