 <svg version="1.1" id="Layer_1" xmlns="http://www.w3.org/2000/svg" xmlns:xlink="http://www.w3.org/1999/xlink" x="0px" y="0px"
	 width="16px" height="16px" viewBox="0 0 16 16" enable-background="new 0 0 16 16" xml:space="preserve">
<path fill-rule="evenodd" clip-rule="evenodd" d="M14.676,13.279l-2.772-2.772c0.707-0.984,1.128-2.188,1.128-3.493
	c0-3.313-2.687-6-6-6s-6,2.687-6,6s2.687,6,6,6c1.286,0,2.476-0.408,3.453-1.098l2.777,2.777c0.391,0.391,1.023,0.391,1.414,0
	C15.066,14.304,15.066,13.67,14.676,13.279z M7.031,11.014c-2.209,0-4-1.791-4-4s1.791-4,4-4s4,1.791,4,4S9.24,11.014,7.031,11.014z
	"/>
</svg>