 <svg version="1.1" id="Layer_1" xmlns="http://www.w3.org/2000/svg" xmlns:xlink="http://www.w3.org/1999/xlink" x="0px" y="0px"
	 width="18px" height="15px" viewBox="0 0 18 15" enable-background="new 0 0 18 15" xml:space="preserve">
<path fill="none" d="M4.973,8.998c0,0,1.539-2.437,6.987-2.437v2.442L17,5.02l-5.04-4.021c0,0,0,2.344-0.001,2.344
	C11.831,3.343,4.973,3.633,4.973,8.998z"/>
<path fill="none" d="M14,10c-0.021,0,0,0.447,0,1v0.001h-0.01v2h-12v-10h4V2.998C5.994,2.998,5.996,3,6,3c0.553,0,1,0.021,1,0
	c0-0.553-0.447-1-1-1C5.996,2,5.994,2.002,5.99,2.002V2.001h-3c-1.104,0-2,0.896-2,2v8c0,1.104,0.896,2,2,2h10
	c1.072,0,1.939-0.846,1.99-1.905C14.984,12.063,15,12.034,15,12v-1C15,10.447,14.553,10,14,10z"/>
</svg>