 <svg version="1.1" id="Layer_1" xmlns="http://www.w3.org/2000/svg" xmlns:xlink="http://www.w3.org/1999/xlink" x="0px" y="0px"
	 width="18px" height="16px" viewBox="0 0 18 16" enable-background="new 0 0 18 16" xml:space="preserve">
<path fill="#838383" d="M16.928,6.032c-0.139-0.398-0.493-0.69-0.92-0.754L11.852,4.66l-1.808-3.751C9.854,0.516,9.447,0.263,9,0.263
	S8.146,0.516,7.956,0.909L6.149,4.66L1.993,5.278C1.565,5.342,1.211,5.634,1.073,6.032c-0.138,0.4-0.034,0.84,0.268,1.141
	l3.046,3.042l-0.707,4.218c-0.072,0.425,0.113,0.852,0.473,1.101c0.199,0.136,0.432,0.205,0.665,0.205
	c0.191,0,0.384-0.047,0.558-0.141L9,13.647l3.624,1.95c0.175,0.094,0.366,0.141,0.558,0.141c0.233,0,0.466-0.069,0.664-0.205
	c0.361-0.249,0.545-0.676,0.475-1.101l-0.707-4.218l3.046-3.042C16.961,6.873,17.064,6.433,16.928,6.032z M12.787,9.43
	c-0.255,0.256-0.371,0.613-0.313,0.966l0.707,4.219l-3.624-1.95C9.384,12.57,9.192,12.523,9,12.523s-0.384,0.047-0.558,0.141
	l-3.624,1.95l0.707-4.219c0.059-0.353-0.057-0.71-0.313-0.966L2.167,6.389l4.156-0.619c0.38-0.057,0.707-0.294,0.87-0.633L9,1.388
	l1.807,3.75c0.164,0.338,0.49,0.576,0.87,0.633l4.156,0.619L12.787,9.43z"/>
</svg>