<svg version="1.1" id="Layer_1" xmlns="http://www.w3.org/2000/svg" xmlns:xlink="http://www.w3.org/1999/xlink" x="0px" y="0px"
	 width="11px" height="22px" viewBox="0 0 11 22" enable-background="new 0 0 11 22" xml:space="preserve">
<path fill-rule="evenodd" clip-rule="evenodd" d="M10.158,1.475c0,1.105,0,3.086,0,3.086s-2.271-0.227-2.84,0.645
	C7.008,5.683,7.191,7.078,7.164,8.08c0.992,0,2.021,0,3.013,0C9.922,9.251,9.74,10.045,9.553,11.06c-0.857,0-2.405,0-2.405,0v9.589
	c0,0-2.838,0-4.173,0c0.001-2.957,0-6.404,0-9.551c-0.648,0-1.127,0-1.776,0c0-1.106,0-1.912,0-3.018c0.629,0,1.127,0,1.756,0
	c0.09-2.206,0.124-4.392,1.218-5.504C5.402,1.325,6.575,1.475,10.158,1.475z"/>
</svg>