<svg version="1.1" id="Layer_1" xmlns="http://www.w3.org/2000/svg" xmlns:xlink="http://www.w3.org/1999/xlink" x="0px" y="0px"
	 width="21px" height="19px" viewBox="0 0 21 19" enable-background="new 0 0 21 19" xml:space="preserve">
<path fill-rule="evenodd" clip-rule="evenodd" d="M10.941,2.243c-0.424,0-0.833,0-1.351,0
	c0.857,0.709,1.619,1.617,1.557,3.094c-0.063,1.493-1.011,2.094-1.875,2.794C9.073,8.293,8.767,8.626,8.691,8.826
	c-0.313,0.826,0.525,1.292,0.956,1.613c0.395,0.294,0.729,0.548,1.032,0.807c0.638,0.547,1.241,1.247,1.237,2.457
	c-0.004,1.321-0.764,2.243-1.612,2.851c-0.852,0.609-2.078,1.029-3.32,1.145C5.53,17.83,4.158,17.659,3.102,17.19
	c-0.955-0.425-1.935-1.208-1.932-2.514c0.001-0.671,0.293-1.339,0.657-1.743c1.772-1.976,3.029-1.666,5.345-1.838
	c-0.124-0.244-0.462-0.535-0.581-0.9c-0.153-0.469-0.059-0.991,0.15-1.37C5.258,9.017,4.074,8.587,3.29,7.832
	C2.62,7.187,2.103,6.094,2.371,4.831c0.229-1.08,0.868-1.859,1.669-2.4c0.837-0.565,1.857-0.957,3.188-0.957c1.641,0,3.394,0,5.14,0
	 M4.415,3.481C4.119,4.35,4.348,5.517,4.658,6.275c0.337,0.824,0.862,1.497,1.5,1.801c1.027,0.49,2.391-0.004,2.813-0.881
	c0.117-0.243,0.17-0.601,0.188-0.863c0.11-1.688-0.788-3.326-1.8-3.901C7.05,2.255,6.558,2.157,6.103,2.206
	C5.209,2.301,4.624,2.868,4.415,3.481z M4.246,12.408c-0.342,0.211-0.75,0.525-0.976,1.125c-0.15,0.4-0.152,0.928-0.038,1.332
	c0.327,1.146,1.687,1.809,3.114,1.932c1.542,0.133,3.099-0.105,3.77-1.201c0.363-0.593,0.378-1.455,0.019-2.044
	c-0.423-0.691-1-0.993-1.613-1.425c-0.186-0.131-0.37-0.348-0.619-0.413c-0.172-0.044-0.525-0.009-0.713,0
	C5.966,11.771,4.991,11.949,4.246,12.408z"/>
<path fill-rule="evenodd" clip-rule="evenodd" d="M16.178,1.493c0.313,0,0.846,0,1.158,0c0,1-0.018,1.977-0.018,2.977
	c0.98,0.044,2.006-0.012,3.02,0c0,0.326,0,0.866,0,1.191c-1.02,0-1.964,0-2.982,0c0,1.025-0.02,1.971-0.02,2.996
	c-0.318,0-0.82,0-1.14,0c0-1.019-0.019-1.978-0.019-2.996c-0.988-0.044-1.986,0.012-3.005,0c0-0.325,0-0.866,0-1.191
	c1.025,0,1.96,0,2.985,0c0-0.987,0.02-1.933,0.02-2.921C16.176,1.522,16.156,1.496,16.178,1.493z"/>
</svg>