<svg version="1.1" id="Layer_1" xmlns="http://www.w3.org/2000/svg" xmlns:xlink="http://www.w3.org/1999/xlink" x="0px" y="0px"
	 width="20px" height="21px" viewBox="0 0 20 21" enable-background="new 0 0 20 21" xml:space="preserve">
<path d="M1.299,6.432h3.458v13.042H1.299V6.432z"/>
<path d="M17.68,7.18c0.854,0.706,1.281,1.877,1.281,3.512v8.783h-3.494v-7.934c0-0.686-0.091-1.213-0.272-1.579
	c-0.333-0.67-0.966-1.005-1.9-1.005c-1.148,0-1.937,0.491-2.364,1.471c-0.221,0.52-0.332,1.182-0.332,1.986v7.061H7.525V6.269h2.965
	v2.09c0.436-0.67,0.85-1.152,1.238-1.448c0.699-0.526,1.585-0.79,2.658-0.79C15.729,6.121,16.826,6.474,17.68,7.18z"/>
<path d="M5.209,2.984c0,1.166-0.945,2.111-2.111,2.111c-1.166,0-2.112-0.945-2.112-2.111
	c0-1.167,0.946-2.112,2.112-2.112C4.264,0.873,5.209,1.818,5.209,2.984z"/>
</svg>