<svg version="1.1" id="Layer_1" xmlns="http://www.w3.org/2000/svg" xmlns:xlink="http://www.w3.org/1999/xlink" x="0px" y="0px"
	 width="22px" height="18px" viewBox="0 0 22 18" enable-background="new 0 0 22 18" xml:space="preserve">
<path fill-rule="evenodd" clip-rule="evenodd" d="M20.951,3.124c-0.092,0.721-1.137,1.444-1.771,1.992
	c0.626,9.216-9.824,14.966-17.417,10.296c2.129,0.016,4.527-0.568,5.793-1.771c-1.841-0.299-3.146-1.134-3.653-2.768
	c0.54-0.051,1.297,0.115,1.661-0.111c-1.685-0.639-3.017-1.632-3.1-3.874c0.6,0.064,0.912,0.416,1.661,0.332
	c-1.09-0.699-2.333-3.354-1.218-5.313C4.885,4.099,7.353,5.8,11.21,6.113c-0.957-4.069,4.437-6.59,6.864-3.653
	c0.942-0.201,1.738-0.55,2.545-0.886c-0.33,0.924-1.002,1.507-1.66,2.104C19.674,3.544,20.43,3.451,20.951,3.124z"/>
</svg>