<svg xmlns="http://www.w3.org/2000/svg" width="18" height="17" viewBox="0 0 18 17"><path fill-rule="evenodd" clip-rule="evenodd" d="M8.5 13.191c.768 0 1.391.625 1.391 1.396s-.623 1.397-1.391 1.397-1.391-.625-1.391-1.396.623-1.397 1.391-1.397zm5-.031c.785 0 1.422.639 1.422 1.428s-.637 1.428-1.422 1.428-1.422-.639-1.422-1.428.637-1.428 1.422-1.428z"/><path d="M16.297 4.09a1 1 0 0 0-1.254.658s-.995 2.505-1.504 4.297c-.294.803-.676 1.026-1.477 1.026H9.937c-.687 0-1.147-.282-1.476-1.035-.916-1.794-2.44-5.041-2.44-5.041-.19-.582-.951-.953-1.364-.953H2.001c-.552 0-1 .449-1 1.004s.448 1.004 1 1.004H4.25l2.795 5.542c.588.988 1.143 1.487 2.081 1.487h3.844c1.222 0 1.832-.436 2.174-1.487l1.809-5.244a1.006 1.006 0 0 0-.656-1.258c-.527-.166.527.166 0 0s.527.166 0 0 .527.166 0 0z"/><path d="M10 4.053V2.017c0-.554.449-1.004 1-1.004s1 .451 1 1.004v2.036h2.535L11 7.603l-3.535-3.55H10z"/></svg>