<svg xmlns="http://www.w3.org/2000/svg" width="18" height="15" viewBox="0 0 18 15"><path fill-rule="evenodd" clip-rule="evenodd" d="M8.5 11.183c.768 0 1.391.628 1.391 1.401s-.623 1.4-1.391 1.4-1.391-.627-1.391-1.4.623-1.401 1.391-1.401zm5-.032c.785 0 1.422.642 1.422 1.433s-.637 1.432-1.422 1.432-1.422-.641-1.422-1.432.637-1.433 1.422-1.433z"/><path d="M16.297 2.054a1 1 0 0 0-1.254.66s-.995 2.513-1.504 4.31c-.294.806-.676 1.029-1.477 1.029H9.937c-.687 0-1.147-.283-1.476-1.038-.916-1.8-2.439-5.057-2.439-5.057-.19-.583-.951-.956-1.364-.956H2.001c-.552 0-1 .451-1 1.008 0 .557.448 1.007 1 1.007H4.25l2.795 5.56c.588.991 1.143 1.491 2.081 1.491h3.844c1.222 0 1.832-.437 2.174-1.491l1.809-5.261c.164-.532-.129-1.096-.656-1.262s.527.166 0 0 .527.166 0 0 .527.166 0 0z"/></svg>