<svg xmlns="http://www.w3.org/2000/svg" width="18" height="12" viewBox="0 0 18 12"><path fill="#838383" d="M16.982 5.89c-.005-.021-.002-.043-.01-.064-.003-.008-.011-.013-.014-.021-.006-.012-.004-.025-.011-.038C15.496 2.988 12.335.997 9 .997S2.504 2.985 1.052 5.765c-.007.011-.006.025-.01.037-.004.008-.011.012-.014.02-.008.022-.006.044-.01.065A.476.476 0 0 0 1 5.999c0 .039.009.075.018.112.004.021.001.043.01.064.003.008.01.013.014.021.005.012.004.025.01.037C2.504 9.012 5.665 11.004 9 11.004s6.496-1.988 7.948-4.768c.007-.012.005-.024.011-.037.003-.008.011-.013.014-.021.008-.021.005-.043.01-.064.008-.038.017-.074.017-.112s-.009-.074-.018-.112zM9 10c-2.811 0-5.628-1.596-7-4 1.379-2.408 4.192-4.001 7-4.001 2.811 0 5.629 1.597 7 4.001-1.379 2.408-4.192 4-7 4z"/><path fill="#838383" d="M9 3.999h-.003A2.002 2.002 0 0 0 6.999 6a.25.25 0 1 0 .5 0c0-.827.673-1.5 1.501-1.5a.25.25 0 0 0 0-.501z"/><path fill="#838383" d="M8.988 2.497a3.505 3.505 0 1 0 0 7.01 3.505 3.505 0 0 0 0-7.01zm0 6.51a3.008 3.008 0 0 1-3.004-3.005 3.007 3.007 0 0 1 3.004-3.004 3.007 3.007 0 0 1 3.004 3.004 3.008 3.008 0 0 1-3.004 3.005z"/></svg>