<svg xmlns="http://www.w3.org/2000/svg" width="18" height="16" viewBox="0 0 18 16"><path fill="#838383" d="M16.928 6.032a1.152 1.152 0 0 0-.92-.754l-4.156-.618L10.044.909C9.854.516 9.447.263 9 .263s-.854.253-1.044.646L6.149 4.66l-4.156.618a1.15 1.15 0 0 0-.92.754 1.1 1.1 0 0 0 .268 1.141l3.046 3.042-.707 4.218c-.072.425.113.852.473 1.101a1.18 1.18 0 0 0 1.223.064L9 13.647l3.624 1.95a1.176 1.176 0 0 0 1.222-.064c.361-.249.545-.676.475-1.101l-.707-4.218 3.046-3.042c.301-.299.404-.739.268-1.14zM12.787 9.43a1.11 1.11 0 0 0-.313.966l.707 4.219-3.624-1.95a1.173 1.173 0 0 0-1.115-.001l-3.624 1.95.707-4.219a1.105 1.105 0 0 0-.313-.966l-3.045-3.04 4.156-.619c.38-.057.707-.294.87-.633L9 1.388l1.807 3.75c.164.338.49.576.87.633l4.156.619-3.046 3.04z"/></svg>